<svg width="104" height="104" viewBox="0 0 104 104" fill="none" xmlns="http://www.w3.org/2000/svg">
<path d="M104 52C104 68.5273 96.2867 83.2607 84.266 92.7767C84.266 92.7767 84.266 92.7853 84.2574 92.794C84.188 92.8373 84.1187 92.8893 84.058 92.95C75.218 99.866 64.09 104 52 104C42.6227 104 33.826 101.513 26.2253 97.1707C24.024 95.914 21.9267 94.5013 19.942 92.95C7.79998 83.4253 0 68.6227 0 52C0 23.2787 23.2787 0 52 0C80.7214 0 104 23.2787 104 52Z" fill="#FBE5F4"/>
<mask id="mask0_8637_75743" style="mask-type:alpha" maskUnits="userSpaceOnUse" x="0" y="0" width="104" height="104">
<path d="M104 52C104 68.5273 96.2867 83.2607 84.266 92.7766C84.266 92.7766 84.266 92.7853 84.2574 92.794C84.188 92.8373 84.1187 92.8893 84.058 92.95C75.218 99.866 64.09 104 52 104C42.6227 104 33.826 101.513 26.2253 97.1706C24.024 95.914 21.9267 94.5013 19.942 92.95C7.79998 83.4253 0 68.6227 0 52C0 23.2787 23.2787 0 52 0C80.7214 0 104 23.2787 104 52Z" fill="#FBE5F4"/>
</mask>
<g mask="url(#mask0_8637_75743)">
<g clip-path="url(#clip0_8637_75743)">
<path d="M3.42773 83.1772C3.42773 69.945 15.9815 59.2207 31.4686 59.2207C46.9557 59.2207 59.5094 69.9478 59.5094 83.1772L31.4686 117.737L3.42773 83.1772Z" fill="#76287C"/>
<path d="M16.5137 32.1554C16.5137 24.3931 22.8179 18.1016 30.596 18.1016H32.7636C40.5417 18.1016 46.8459 24.3931 46.8459 32.1554V40.8026C46.8459 43.7875 44.4192 46.2093 41.4283 46.2093H21.9313C18.9404 46.2093 16.5166 43.7875 16.5166 40.8026V32.1554H16.5137Z" fill="#481119"/>
<path d="M44.4769 45.6765C46.8719 45.6765 48.8092 43.7402 48.8092 41.3529C48.8092 38.9656 46.869 37.0293 44.4769 37.0293C42.0847 37.0293 40.1445 38.9656 40.1445 41.3529C40.1445 43.7402 42.0847 45.6765 44.4769 45.6765Z" fill="#D67B2F"/>
<path d="M18.4769 45.6765C20.8719 45.6765 22.8092 43.7402 22.8092 41.3529C22.8092 38.9656 20.869 37.0293 18.4769 37.0293C16.0847 37.0293 14.1445 38.9656 14.1445 41.3529C14.1445 43.7402 16.0847 45.6765 18.4769 45.6765Z" fill="#D67B2F"/>
<path d="M31.4808 51.0742C33.8758 51.0742 35.8131 53.0105 35.8131 55.3978V59.7214C35.8131 62.1116 33.8729 64.045 31.4808 64.045C29.0886 64.045 27.1484 62.1087 27.1484 59.7214V55.3978C27.1484 53.0076 29.0886 51.0742 31.4808 51.0742Z" fill="#D67B2F"/>
<path fill-rule="evenodd" clip-rule="evenodd" d="M50.9459 83.2012C45.6599 86.172 39.0938 87.9352 31.973 87.9352C24.8521 87.9352 18.286 86.172 13 83.2012H50.9487H50.9459Z" fill="#C135C5"/>
<path d="M31.4765 19.1855C38.653 19.1855 44.4765 24.9973 44.4765 32.1592V42.9697C44.4765 50.1316 38.653 55.9434 31.4765 55.9434C24.3001 55.9434 18.4766 50.1316 18.4766 42.9697V32.1592C18.4766 24.9973 24.3001 19.1855 31.4765 19.1855Z" fill="#EE9751"/>
<path d="M31.3438 44.0474V37.5605" stroke="#3F1F11" stroke-width="0.822222"/>
<path d="M24.4352 41.3558C25.6327 41.3558 26.6028 40.3876 26.6028 39.1925C26.6028 37.9974 25.6327 37.0293 24.4352 37.0293C23.2377 37.0293 22.2676 37.9974 22.2676 39.1925C22.2676 40.3876 23.2377 41.3558 24.4352 41.3558Z" fill="#3F1F11"/>
<path d="M35.7197 48.1408C35.6334 48.3477 35.5297 48.5459 35.4175 48.7297C34.5942 50.0915 33.1376 50.9935 31.4795 50.9935C29.8214 50.9935 28.3706 50.0972 27.5415 48.7297C27.4264 48.5401 27.3256 48.3419 27.2392 48.1408C26.9427 47.4542 27.4062 46.6699 28.1374 46.6699H34.8216C35.5528 46.6699 36.0191 47.4542 35.7197 48.1408Z" fill="#E21F26"/>
<path d="M38.5192 41.3558C39.7167 41.3558 40.6868 40.3876 40.6868 39.1925C40.6868 37.9974 39.7167 37.0293 38.5192 37.0293C37.3217 37.0293 36.3516 37.9974 36.3516 39.1925C36.3516 40.3876 37.3217 41.3558 38.5192 41.3558Z" fill="#3F1F11"/>
<path d="M28.316 43.5098H34.4302C36.569 43.5098 38.302 45.245 38.302 47.3737H24.4355C24.4355 45.2392 26.1742 43.5098 28.3073 43.5098H28.3131H28.316Z" fill="#3F1F11"/>
<path d="M31.479 37.0293C32.3772 37.0293 33.1026 37.7532 33.1026 38.6496V42.9732C33.1026 43.8695 32.3772 44.5934 31.479 44.5934C30.5809 44.5934 29.8555 43.8695 29.8555 42.9732V38.6496C29.8555 37.7532 30.5809 37.0293 31.479 37.0293Z" fill="#DC7E33"/>
<path d="M41.9059 35.4045C41.7476 35.982 41.1575 36.3238 40.5789 36.1658L38.489 35.6028C37.9104 35.4448 37.5678 34.8558 37.7262 34.2784C37.8845 33.7009 38.4746 33.3591 39.0532 33.5171L41.1431 34.0802C41.7217 34.2382 42.0643 34.8271 41.9059 35.4045Z" fill="#3F1F11"/>
<path d="M25.6575 34.2878C25.8158 34.8652 25.4675 35.4541 24.8947 35.6121L22.8048 36.1752C22.2262 36.3332 21.636 35.9856 21.4777 35.4139C21.3194 34.8365 21.6677 34.2475 22.2406 34.0895L24.3304 33.5265C24.9091 33.3685 25.4992 33.7161 25.6575 34.2878Z" fill="#3F1F11"/>
<path fill-rule="evenodd" clip-rule="evenodd" d="M37.8159 27.8669C40.7176 30.2284 44.5865 30.2829 46.4547 27.9904C48.3287 25.6979 47.4939 21.9259 44.5922 19.5702C42.5398 17.9011 39.995 17.3811 38.0232 18.0418L27.0671 16.9559C21.114 16.367 15.8058 20.7021 15.2157 26.6431L15.1005 27.7778C14.9825 28.9672 15.8547 30.0273 17.0407 30.145L31.7132 31.6044C34.399 31.8687 36.8256 30.1278 37.4877 27.6055C37.5914 27.6974 37.6979 27.7893 37.8073 27.8813L37.8188 27.8698L37.8159 27.8669Z" fill="#481119"/>
</g>
<g clip-path="url(#clip1_8637_75743)">
<path d="M66.5742 40.6474C66.5742 32.9068 72.9021 26.6348 80.7056 26.6348C88.5092 26.6348 94.837 32.9068 94.837 40.6474V62.1337C94.837 62.9086 94.2061 63.5342 93.4247 63.5342H67.9892C67.2078 63.5342 66.5769 62.9086 66.5769 62.1337V40.6474H66.5742Z" fill="#481119"/>
<path d="M58.3672 87.7051C58.3672 75.2107 68.5836 65.0801 81.1839 65.0801C93.7841 65.0801 104.001 75.2107 104.001 87.7051L80.0138 112.968L58.3672 87.7051Z" fill="#76287C"/>
<path d="M86.3531 65.6762C86.3531 68.6055 84.03 71.0085 81.171 71.0085C79.7402 71.0085 78.4492 70.4143 77.5121 69.4589C76.5749 68.4955 75.9941 67.171 75.9941 65.7077V65.6789C76.5116 65.5637 76.9709 65.4511 77.5068 65.3857C77.5543 66.3281 78.0189 67.1998 78.6314 67.8202C79.2808 68.4824 80.181 68.8934 81.171 68.8934C83.0981 68.8934 84.6768 67.2835 84.7718 65.3359L86.3531 65.6762Z" fill="#D67B2F"/>
<path d="M81.3824 73.0494L77.6152 69.5469H84.7535L81.385 73.0494H81.3824Z" fill="#D67B2F"/>
<path d="M81.1734 57.9199C83.2563 57.9199 84.9405 59.5926 84.9405 61.6554V65.3909C84.9405 67.4563 83.2536 69.1264 81.1734 69.1264C79.0931 69.1264 77.4062 67.4537 77.4062 65.3909V61.6554C77.4062 59.59 79.0931 57.9199 81.1734 57.9199Z" fill="#D67B2F"/>
<path d="M98.4267 71.1219C93.6221 74.8495 87.5741 77.0772 81.0033 77.0772C76.2515 77.0772 71.7742 75.9123 67.8434 73.8574C67.2706 73.559 66.7479 73.1742 66.2885 72.7213C65.5018 71.9464 64.8445 71.2056 64.3244 70.5695C64.24 70.4674 64.1608 70.368 64.0842 70.2711C63.8968 70.0355 63.9522 69.6978 64.2004 69.5303C65.9295 68.368 69.0947 66.4414 70.816 66.1011C71.2674 66.0121 71.6027 66.2738 71.9194 66.7503C73.2473 68.7816 74.1343 74.7422 81.1802 74.7422C88.2261 74.7422 88.6511 68.6193 89.81 66.6613C90.0793 66.1979 90.3882 65.9649 90.837 66.1011C93.1918 66.8026 98.3739 69.8366 98.8438 70.3051C98.8438 70.3051 99.1923 70.5512 98.4293 71.1219H98.4267Z" fill="#F7A8FA"/>
<path d="M92.3062 53.2757C94.3891 53.2757 96.0733 51.6029 96.0733 49.5402C96.0733 47.4774 94.3864 45.8047 92.3062 45.8047C90.226 45.8047 88.5391 47.4774 88.5391 49.5402C88.5391 51.6029 90.226 53.2757 92.3062 53.2757Z" fill="#D67B2F"/>
<path d="M69.6929 53.2757C71.7758 53.2757 73.4601 51.6029 73.4601 49.5402C73.4601 47.4774 71.7732 45.8047 69.6929 45.8047C67.6127 45.8047 65.9258 47.4774 65.9258 49.5402C65.9258 51.6029 67.6127 53.2757 69.6929 53.2757Z" fill="#D67B2F"/>
<path d="M80.972 30.3691C87.2128 30.3691 92.2761 35.3899 92.2761 41.5782V50.9209C92.2761 57.1092 87.2128 62.13 80.972 62.13C74.7313 62.13 69.668 57.1092 69.668 50.9209V41.5782C69.668 35.3899 74.7313 30.3691 80.972 30.3691Z" fill="#EE9751"/>
<path d="M80.8828 51.876V46.2715" stroke="#3F1F11" stroke-width="0.774786"/>
<path d="M81.0002 45.8047C81.7816 45.8047 82.4126 46.4303 82.4126 47.2052V50.9407C82.4126 51.7155 81.7816 52.3411 81.0002 52.3411C80.2188 52.3411 79.5879 51.7155 79.5879 50.9407V47.2052C79.5879 46.4303 80.2188 45.8047 81.0002 45.8047Z" fill="#DC7E33"/>
<path d="M90.0609 44.4131C89.9236 44.9131 89.4115 45.2062 88.9073 45.0727L87.0884 44.5858C86.5842 44.4497 86.2885 43.9419 86.4231 43.4419C86.5604 42.9419 87.0725 42.6487 87.5768 42.7822L89.3957 43.2691C89.8999 43.4052 90.1955 43.9131 90.0609 44.4131Z" fill="#3F1F11"/>
<path d="M75.9327 43.4426C76.07 43.9426 75.7691 44.4504 75.2675 44.5866L73.4486 45.0735C72.9444 45.2096 72.4322 44.9112 72.2949 44.4138C72.1577 43.9138 72.4586 43.406 72.9602 43.2698L74.7791 42.7829C75.2833 42.6468 75.7955 42.9452 75.9327 43.4426Z" fill="#3F1F11"/>
<path fill-rule="evenodd" clip-rule="evenodd" d="M78.8209 53.7246C79.0822 53.7246 79.2908 53.934 79.2908 54.1906C79.2908 54.8738 80.0273 55.591 81.1757 55.591C82.324 55.591 83.0606 54.8738 83.0606 54.1906C83.0606 53.9314 83.2718 53.7246 83.5305 53.7246C83.7892 53.7246 84.0004 53.934 84.0004 54.1906C84.0004 55.5727 82.6355 56.5256 81.173 56.5256C79.7105 56.5256 78.3457 55.5727 78.3457 54.1906C78.3457 53.9314 78.5569 53.7246 78.8156 53.7246H78.8209Z" fill="#3F1F11"/>
<path fill-rule="evenodd" clip-rule="evenodd" d="M74.8106 47.422C74.1823 47.422 73.8681 47.8303 73.8681 48.1235C73.8681 48.5109 73.5513 48.8251 73.1606 48.8251C72.7699 48.8251 72.4531 48.5109 72.4531 48.1235C72.4531 46.8644 73.6094 46.0215 74.8079 46.0215C76.0064 46.0215 77.1627 46.8644 77.1627 48.1235C77.1627 48.5109 76.8459 48.8251 76.4552 48.8251C76.0645 48.8251 75.7477 48.5109 75.7477 48.1235C75.7477 47.8329 75.4336 47.422 74.8053 47.422H74.8106Z" fill="#3F1F11"/>
<path fill-rule="evenodd" clip-rule="evenodd" d="M87.5293 47.422C86.901 47.422 86.5869 47.8303 86.5869 48.1235C86.5869 48.5109 86.2701 48.8251 85.8794 48.8251C85.4887 48.8251 85.1719 48.5109 85.1719 48.1235C85.1719 46.8644 86.3282 46.0215 87.5267 46.0215C88.7252 46.0215 89.8815 46.8644 89.8815 48.1235C89.8815 48.5109 89.5647 48.8251 89.174 48.8251C88.7833 48.8251 88.4665 48.5109 88.4665 48.1235C88.4665 47.8329 88.155 47.422 87.524 47.422H87.5293Z" fill="#3F1F11"/>
<path d="M74.86 29.9004H81.4783C88.3314 29.9004 93.8911 35.0652 93.8911 41.4315C93.8911 42.544 92.9196 43.4445 91.7237 43.4445H84.6778C78.0649 43.4445 72.6953 38.4551 72.6953 32.3139V31.9134C72.6953 30.8009 73.6668 29.9004 74.8627 29.9004H74.86Z" fill="#481119"/>
<path d="M68.9299 55.1291C69.7113 55.1291 70.3423 54.5008 70.3423 53.7286C70.3423 52.9564 69.7087 52.3281 68.9299 52.3281C68.1512 52.3281 67.5176 52.9564 67.5176 53.7286C67.5176 54.5008 68.1512 55.1291 68.9299 55.1291Z" fill="#F9E4EF"/>
<path d="M92.9495 55.1291C93.7309 55.1291 94.3618 54.5008 94.3618 53.7286C94.3618 52.9564 93.7282 52.3281 92.9495 52.3281C92.1707 52.3281 91.5371 52.9564 91.5371 53.7286C91.5371 54.5008 92.1707 55.1291 92.9495 55.1291Z" fill="#F9E4EF"/>
</g>
<g clip-path="url(#clip2_8637_75743)">
<path d="M35.0996 106.786C35.0996 95.3146 44.4877 86.0137 56.0663 86.0137C67.6449 86.0137 77.0329 95.3146 77.0329 106.786H35.0996Z" fill="#F7A8FA"/>
<path d="M56.0649 79.3711C57.9595 79.3711 59.4951 80.8924 59.4951 82.7694V86.1677C59.4951 88.0448 57.9595 89.5661 56.0649 89.5661C54.1703 89.5661 52.6348 88.0448 52.6348 86.1677V82.7694C52.6348 80.8924 54.1703 79.3711 56.0649 79.3711Z" fill="#D67B2F"/>
<path d="M66.352 75.1345C68.2466 75.1345 69.7822 73.6132 69.7822 71.7362C69.7822 69.8592 68.2466 68.3379 66.352 68.3379C64.4574 68.3379 62.9219 69.8592 62.9219 71.7362C62.9219 73.6132 64.4574 75.1345 66.352 75.1345Z" fill="#D67B2F"/>
<path d="M45.77 75.1345C47.6646 75.1345 49.2002 73.6132 49.2002 71.7362C49.2002 69.8592 47.6646 68.3379 45.77 68.3379C43.8754 68.3379 42.3398 69.8592 42.3398 71.7362C42.3398 73.6132 43.8754 75.1345 45.77 75.1345Z" fill="#D67B2F"/>
<path d="M56.0634 54.3184C61.7424 54.3184 66.3515 58.8847 66.3515 64.5109V73.0044C66.3515 78.6306 61.7424 83.1969 56.0634 83.1969C50.3845 83.1969 45.7754 78.6306 45.7754 73.0044V64.5109C45.7754 58.8847 50.3845 54.3184 56.0634 54.3184Z" fill="#EE9751"/>
<path d="M55.097 77.175L60.1937 75.757C60.7468 75.6032 61.2732 76.0959 61.1932 76.6775C60.9991 78.105 60.0093 79.3356 58.5732 79.7345C57.1323 80.1335 55.6404 79.5951 54.7283 78.4776C54.3523 78.0233 54.5439 77.3264 55.097 77.1726V77.175Z" fill="#8F1E60"/>
<path fill-rule="evenodd" clip-rule="evenodd" d="M55.8996 50.0645C57.9227 50.0645 59.633 51.4223 60.1473 53.2705C60.744 52.9725 61.416 52.8067 62.1267 52.8067C64.4725 52.8067 66.389 54.6212 66.5248 56.9092C66.748 56.8755 66.9785 56.8587 67.2138 56.8587C69.8191 56.8587 71.9296 58.9472 71.9296 61.5308C71.9296 62.4152 71.6822 63.242 71.2528 63.9462C71.9393 64.6335 72.359 65.5804 72.359 66.6259C72.359 68.736 70.6318 70.4472 68.5019 70.4472C66.372 70.4472 64.6448 68.736 64.6448 66.6259C64.6448 66.2486 64.7006 65.8881 64.8025 65.542C63.4319 64.7297 62.51 63.2444 62.5003 61.55C62.2214 61.6678 61.9133 61.7327 61.5906 61.7327H50.2012C50.0072 61.7327 49.8155 61.7062 49.636 61.6654H49.6312C49.5851 63.3141 48.6754 64.7489 47.3339 65.542C47.4358 65.8857 47.4916 66.2462 47.4916 66.6259C47.4916 68.736 45.7644 70.4472 43.6345 70.4472C41.5046 70.4472 39.7773 68.736 39.7773 66.6259C39.7773 65.5804 40.2019 64.6335 40.8835 63.9462C40.4517 63.242 40.2067 62.4128 40.2067 61.5308C40.2067 58.9496 42.3148 56.8587 44.9226 56.8587C45.056 56.8587 45.1894 56.8635 45.3204 56.8755C45.4757 54.6044 47.3824 52.8019 49.7185 52.8019C50.4123 52.8019 51.0721 52.9629 51.6568 53.2489C52.1759 51.4103 53.8764 50.0645 55.8996 50.0645Z" fill="#481119"/>
<path d="M50.4924 71.7362C51.4385 71.7362 52.2075 70.9768 52.2075 70.0371C52.2075 69.0973 51.4409 68.3379 50.4924 68.3379C49.5439 68.3379 48.7773 69.0973 48.7773 70.0371C48.7773 70.9768 49.5439 71.7362 50.4924 71.7362Z" fill="#3F1F11"/>
<path d="M61.6409 71.7362C62.5869 71.7362 63.3559 70.9768 63.3559 70.0371C63.3559 69.0973 62.5894 68.3379 61.6409 68.3379C60.6924 68.3379 59.9258 69.0973 59.9258 70.0371C59.9258 70.9768 60.6924 71.7362 61.6409 71.7362Z" fill="#3F1F11"/>
<path d="M56.063 68.3379C56.7738 68.3379 57.3487 68.9075 57.3487 69.6117V73.01C57.3487 73.7142 56.7738 74.2838 56.063 74.2838C55.3523 74.2838 54.7773 73.7142 54.7773 73.01V69.6117C54.7773 68.9075 55.3523 68.3379 56.063 68.3379Z" fill="#DC7E33"/>
<path d="M64.3174 67.0556C64.1937 67.5098 63.7255 67.7766 63.267 67.654L61.6126 67.2118C61.1541 67.0893 60.8849 66.6254 61.0086 66.1712C61.1323 65.7169 61.6005 65.4502 62.059 65.5727L63.7134 66.015C64.1719 66.1375 64.4412 66.6014 64.3174 67.0556Z" fill="#3F1F11"/>
<path d="M51.4499 66.1865C51.5736 66.6407 51.2995 67.1046 50.8459 67.2271L49.1915 67.6693C48.733 67.7919 48.2648 67.5203 48.1411 67.0709C48.0173 66.6167 48.2915 66.1528 48.7451 66.0303L50.3995 65.5881C50.858 65.4655 51.3262 65.7371 51.4499 66.1865Z" fill="#3F1F11"/>
<path d="M61.0127 86.5446V86.5638C61.0127 89.2699 58.7955 91.4642 56.0616 91.4642C54.6934 91.4642 53.4586 90.9162 52.5635 90.0294C51.6683 89.1426 51.1152 87.9673 51.1152 86.6167V86.5974C51.5373 86.4893 52.122 86.3403 52.6362 86.2826C52.6799 87.1526 53.0511 87.9385 53.6357 88.5153C54.2567 89.1257 55.1155 89.5103 56.0616 89.5103C57.9004 89.5103 59.4262 88.0418 59.516 86.2441C60.0303 86.3042 60.5081 86.434 61.0127 86.5422V86.5446Z" fill="#F9E4EF"/>
</g>
</g>
<defs>
<clipPath id="clip0_8637_75743">
<rect width="55.5" height="93.7333" fill="white" transform="translate(3.90039 16.9004)"/>
</clipPath>
<clipPath id="clip1_8637_75743">
<rect width="45.6333" height="86.3333" fill="white" transform="translate(58.3652 26.6348)"/>
</clipPath>
<clipPath id="clip2_8637_75743">
<rect width="41.9333" height="56.7333" fill="white" transform="translate(35.0996 50.0664)"/>
</clipPath>
</defs>
</svg>
